Coordinates
version=1
nRows=16
nColumns=40
inDegrees=yes

Units are S.I. units (second, meters, Newtons, ...)
If the header above contains a line with 'inDegrees', this indicates whether rotational values are in degrees (yes) or radians (no).

endheader
time	pelvis_tilt	pelvis_list	pelvis_rotation	pelvis_tx	pelvis_ty	pelvis_tz	hip_flexion_r	hip_adduction_r	hip_rotation_r	knee_angle_r	knee_angle_r_beta	ankle_angle_r	subtalar_angle_r	mtp_angle_r	hip_flexion_l	hip_adduction_l	hip_rotation_l	knee_angle_l	knee_angle_l_beta	ankle_angle_l	subtalar_angle_l	mtp_angle_l	lumbar_extension	lumbar_bending	lumbar_rotation	arm_flex_r	arm_add_r	arm_rot_r	elbow_flex_r	pro_sup_r	wrist_flex_r	wrist_dev_r	arm_flex_l	arm_add_l	arm_rot_l	elbow_flex_l	pro_sup_l	wrist_flex_l	wrist_dev_l
      6.10000000	     36.17593541	      2.34865668	   -178.71198372	      0.39690145	      0.78105290	     -0.57976291	     69.61014558	    -14.77975155	     -4.95969729	     30.20702575	      0.52721206	     -2.09161728	      0.00000000	      0.00000000	     73.28121193	    -13.85552063	     -1.45014427	     35.20509656	      0.61444485	      0.03803199	      0.00000000	      0.00000000	    -52.72278443	      0.18714502	      3.68672781	     65.00635373	    -26.78307446	     53.37201055	     27.97461287	     64.38192568	      0.00000000	      0.00000000	     71.73291457	     -1.82571925	      2.71918483	     14.66297616	     24.54351580	      0.00000000	      0.00000000
      6.10500000	     36.06431534	      2.41410358	   -178.80573727	      0.39668794	      0.78156622	     -0.58015458	     69.42670634	    -14.66186955	     -5.21439301	     30.13482224	      0.52595187	     -2.13892081	      0.00000000	      0.00000000	     73.06070364	    -14.02470803	     -1.47574291	     35.02042619	      0.61122174	     -0.01988863	      0.00000000	      0.00000000	    -52.75008791	      0.13204898	      3.69719700	     64.89569007	    -26.66929332	     53.39209903	     27.98912101	     64.40274672	      0.00000000	      0.00000000	     71.60775096	     -1.95456568	      2.73853702	     14.57471112	     24.51857264	      0.00000000	      0.00000000
      6.11000000	     35.99229784	      2.42818578	   -178.70465165	      0.39672066	      0.78184774	     -0.58018327	     69.30447628	    -14.73991877	     -5.24905787	     30.10505546	      0.52543234	     -2.14400808	      0.00000000	      0.00000000	     72.98030481	    -13.94683595	     -1.44175961	     34.99615151	      0.61079807	     -0.04732459	      0.00000000	      0.00000000	    -52.72548408	      0.20139604	      3.64643912	     64.77835029	    -26.65835601	     53.41661695	     27.96975578	     64.40908742	      0.00000000	      0.00000000	     71.54011122	     -1.95184034	      2.74435211	     14.54595848	     24.51226751	      0.00000000	      0.00000000
      6.11500000	     35.90282114	      2.47456211	   -178.68511024	      0.39665024	      0.78220443	     -0.58039952	     69.17407729	    -14.73296154	     -5.36915813	     30.07532161	      0.52491339	     -2.16248641	      0.00000000	      0.00000000	     72.84918815	    -13.99091083	     -1.46848989	     34.89112756	      0.60896506	     -0.09063815	      0.00000000	      0.00000000	    -52.72519650	      0.23019256	      3.65608277	     64.66237466	    -26.61111548	     53.44672836	     27.95250631	     64.41769987	      0.00000000	      0.00000000	     71.48075376	     -1.97837675	      2.75052949	     14.52875355	     24.50501027	      0.00000000	      0.00000000
      6.12000000	     35.46137566	      2.49767584	   -178.76824566	      0.39614720	      0.78340699	     -0.58081869	     68.54525894	    -14.55719986	     -5.40948078	     29.78259670	      0.51980437	     -2.30056336	      0.00000000	      0.00000000	     72.26367737	    -14.21438708	     -1.79485046	     34.72791093	      0.60611639	     -0.32684596	      0.00000000	      0.00000000	    -53.16829469	      0.15481042	      3.76483990	     64.73089912	    -26.57625445	     53.43956194	     27.84433442	     64.44480869	      0.00000000	      0.00000000	     71.50462902	     -1.99395453	      2.83509152	     14.64300796	     24.46381610	      0.00000000	      0.00000000
      6.12500000	     35.40867691	      2.52018860	   -178.67979318	      0.39612400	      0.78363304	     -0.58087757	     68.47587437	    -14.64259374	     -5.50926154	     29.80484521	      0.52019268	     -2.30482931	      0.00000000	      0.00000000	     72.20221586	    -14.15603149	     -1.78805091	     34.69357850	      0.60551717	     -0.33121494	      0.00000000	      0.00000000	    -53.11901507	      0.22196422	      3.71111992	     64.61141546	    -26.55930599	     53.47046494	     27.83427258	     64.45145744	      0.00000000	      0.00000000	     71.43291281	     -2.01067991	      2.84263684	     14.60107619	     24.45751399	      0.00000000	      0.00000000
      6.13000000	     35.33970463	      2.56118275	   -178.61761540	      0.39607116	      0.78385076	     -0.58100017	     68.38802917	    -14.66713574	     -5.57816450	     29.83778051	      0.52076751	     -2.30789624	      0.00000000	      0.00000000	     72.10846520	    -14.14169496	     -1.79734114	     34.63006483	      0.60440865	     -0.33952352	      0.00000000	      0.00000000	    -53.07677325	      0.28989718	      3.69279248	     64.49442699	    -26.52214086	     53.50213289	     27.83767629	     64.45827795	      0.00000000	      0.00000000	     71.35388645	     -2.04044997	      2.84897203	     14.55771406	     24.44969468	      0.00000000	      0.00000000
      6.13500000	     35.23730408	      2.62139275	   -178.62276051	      0.39591825	      0.78420140	     -0.58131382	     68.26509944	    -14.63372262	     -5.72901779	     29.88166145	      0.52153338	     -2.31891461	      0.00000000	      0.00000000	     71.95802237	    -14.23524319	     -1.83400459	     34.50722971	      0.60226477	     -0.36291545	      0.00000000	      0.00000000	    -53.09341706	      0.30499363	      3.72175062	     64.38112114	    -26.48925491	     53.53484264	     27.84118163	     64.46704796	      0.00000000	      0.00000000	     71.30276891	     -2.08705483	      2.86600022	     14.53723211	     24.43997285	      0.00000000	      0.00000000
      6.14000000	     35.19679201	      2.64528280	   -178.50755893	      0.39599502	      0.78436570	     -0.58135688	     68.21065061	    -14.71365668	     -5.73521614	     29.88652723	      0.52161830	     -2.31776780	      0.00000000	      0.00000000	     71.93037940	    -14.15082404	     -1.84105361	     34.50732714	      0.60226647	     -0.36897528	      0.00000000	      0.00000000	    -53.03295208	      0.40919693	      3.67950252	     64.34818844	    -26.50587949	     53.53898534	     27.83224262	     64.46762427	      0.00000000	      0.00000000	     71.30653502	     -2.07829760	      2.86975003	     14.54032854	     24.43977744	      0.00000000	      0.00000000
      6.14500000	     35.07913974	      2.68985783	   -178.49934778	      0.39580798	      0.78464883	     -0.58165707	     68.05905592	    -14.68209173	     -5.82176741	     29.90918786	      0.52201380	     -2.31693915	      0.00000000	      0.00000000	     71.77137924	    -14.20459603	     -1.84237097	     34.43905637	      0.60107492	     -0.40166753	      0.00000000	      0.00000000	    -53.02075823	      0.41812060	      3.69933443	     64.15214096	    -26.47367650	     53.58686259	     27.82746023	     64.47585864	      0.00000000	      0.00000000	     71.16037418	     -2.11383285	      2.87118589	     14.47914552	     24.43107790	      0.00000000	      0.00000000
      6.15000000	     34.34059160	      2.79148229	   -178.54969965	      0.39485526	      0.78635215	     -0.58206513	     67.12640802	    -14.58400986	     -6.35395715	     29.78556017	      0.51985609	     -2.32626862	      0.00000000	      0.00000000	     70.88075648	    -14.50746076	     -2.26372916	     34.28882329	      0.59845286	     -0.52307564	      0.00000000	      0.00000000	    -53.78948434	      0.39037680	      3.91053118	     63.88588757	    -26.34024608	     52.16963055	     27.90426390	     63.79209706	      0.00000000	      0.00000000	     71.22931443	     -2.18449644	      3.85537353	     14.47551750	     25.08119089	      0.00000000	      0.00000000
      6.15500000	     34.30467505	      2.80777886	   -178.45260665	      0.39493700	      0.78649644	     -0.58213863	     67.07543241	    -14.64663052	     -6.35792766	     29.79033924	      0.51993951	     -2.32451077	      0.00000000	      0.00000000	     70.86093320	    -14.43646461	     -2.26354068	     34.28820244	      0.59844203	     -0.52745478	      0.00000000	      0.00000000	    -53.72250808	      0.47941575	      3.86969936	     63.84582244	    -26.35268734	     52.17746105	     27.89791745	     63.79410233	      0.00000000	      0.00000000	     71.22463361	     -2.17918965	      3.85847989	     14.47495462	     25.08074959	      0.00000000	      0.00000000
      6.16000000	     34.02670958	      2.81482191	   -178.48824840	      0.39452934	      0.78718301	     -0.58258513	     66.72958581	    -14.57885690	     -6.48760088	     29.75084644	      0.51925023	     -2.29781854	      0.00000000	      0.00000000	     70.45347514	    -14.56748249	     -2.43919545	     34.11491149	      0.59541753	     -0.63402888	      0.00000000	      0.00000000	    -53.90651316	      0.40020561	      3.89958248	     63.52573841	    -26.23098725	     51.55618007	     27.99375324	     63.69417450	      0.00000000	      0.00000000	     71.07149515	     -2.28539684	      4.35940691	     14.48209611	     25.26559985	      0.00000000	      0.00000000
      6.16500000	     33.93527145	      3.05729290	   -178.37834143	      0.39442158	      0.78748767	     -0.58252859	     66.46748095	    -14.53157737	     -6.76705502	     29.60653760	      0.51673156	     -2.32396702	      0.00000000	      0.00000000	     70.42551881	    -14.58151663	     -2.17234869	     34.07087217	      0.59464890	     -0.74080772	      0.00000000	      0.00000000	    -53.88091677	      0.66374774	      4.03405788	     63.22626451	    -26.05606972	     50.61119173	     27.90965494	     63.31640627	      0.00000000	      0.00000000	     70.87219239	     -2.35701250	      4.83144683	     14.57193508	     25.64770950	      0.00000000	      0.00000000
      6.17000000	     33.77892479	      3.03332783	   -178.34010138	      0.39421400	      0.78787272	     -0.58285480	     66.30791027	    -14.56808700	     -6.85162881	     29.66110497	      0.51768394	     -2.36620151	      0.00000000	      0.00000000	     70.20998052	    -14.60231066	     -2.28908666	     34.01760703	      0.59371925	     -0.77824147	      0.00000000	      0.00000000	    -53.93068009	      0.61527922	      3.99576705	     62.76084353	    -25.84243772	     49.32534990	     27.96952110	     62.31164094	      0.00000000	      0.00000000	     70.79272013	     -2.54552791	      5.76361930	     14.43891992	     26.76096861	      0.00000000	      0.00000000
      6.17500000	     33.62566888	      2.99722996	   -178.34928952	      0.39401713	      0.78837747	     -0.58323926	     66.11567173	    -14.52934953	     -6.80775593	     29.61209382	      0.51682854	     -2.36371733	      0.00000000	      0.00000000	     69.95610312	    -14.65358421	     -2.45893899	     33.89211329	      0.59152897	     -0.84156920	      0.00000000	      0.00000000	    -53.99973890	      0.53105997	      4.00146953	     62.44666933	    -25.65931935	     48.41974893	     28.07380095	     61.49851176	      0.00000000	      0.00000000	     70.70850812	     -2.61837074	      6.57921675	     14.42401569	     27.82518835	      0.00000000	      0.00000000
